<svg width="65" height="65" viewBox="0 0 65 65" fill="none" xmlns="http://www.w3.org/2000/svg">
<path d="M32.4831 32.4446C28.8127 32.4446 25.7647 29.3947 25.7647 25.7846C25.7647 22.0499 28.8127 19 32.4831 19C36.2779 19 39.2015 22.0499 39.2015 25.7846C39.2015 29.3947 36.2779 32.4446 32.4831 32.4446ZM32.4831 22.9206C30.9281 22.9206 29.7461 24.2269 29.7461 25.7838C29.7461 27.3407 30.9281 28.5225 32.4831 28.5225C34.1004 28.5225 35.2202 27.3399 35.2202 25.7838C35.2202 24.2277 34.1004 22.9214 32.4831 22.9214V22.9206ZM35.1581 37.982L38.9529 41.6544C39.6997 42.4636 39.6997 43.6462 38.9529 44.3931C38.1439 45.2023 36.8997 45.2023 36.2779 44.3931L32.4831 40.6616L28.8142 44.3962C28.4412 44.7697 27.9431 44.9564 27.3835 44.9564C26.9483 44.9564 26.4502 44.7697 26.015 44.3962C25.2681 43.6493 25.2681 42.4666 26.015 41.6575L29.8719 37.9851C28.4779 37.5713 27.1406 36.9859 25.8906 36.2423C24.9573 35.7443 24.7708 34.4994 25.2689 33.5658C25.8906 32.6321 27.0105 32.3832 28.006 33.0056C29.3549 33.83 30.9047 34.2661 32.4851 34.2661C34.0654 34.2661 35.6152 33.83 36.9641 33.0056C37.9619 32.3832 39.1417 32.6321 39.7012 33.5658C40.2608 34.4994 40.0121 35.7443 39.1417 36.2423C37.9573 36.9884 36.5888 37.5494 35.1581 37.9851V37.982Z" fill="black" fill-opacity="0.4"/>
<circle cx="32.5" cy="32.5" r="32" stroke="black" stroke-opacity="0.3"/>
</svg>
