<svg width="65" height="65" viewBox="0 0 65 65" fill="none" xmlns="http://www.w3.org/2000/svg">
<circle cx="32.5" cy="32.5" r="32" stroke="black" stroke-opacity="0.3"/>
<path d="M44.9009 40.9267C44.7523 40.9446 44.6009 40.9714 44.4524 40.9714C42.9811 40.9744 41.5099 40.9714 40.0387 40.9774C39.8359 40.9774 39.6616 40.8999 39.5102 40.7717C39.2017 40.5094 38.8875 40.2501 38.6046 39.961C37.8676 39.198 37.1506 38.4171 36.4192 37.6482C36.1907 37.4097 35.9479 37.1862 35.7079 36.9626C35.5851 36.8404 35.4279 36.8136 35.268 36.8166C35.0537 36.8226 34.8737 36.9239 34.7909 37.1325C34.7138 37.3203 34.6481 37.526 34.6281 37.7257C34.5909 38.0893 34.5909 38.4559 34.5824 38.8195C34.5738 39.2278 34.5624 39.6391 34.4509 40.0355C34.4024 40.2114 34.331 40.3872 34.2453 40.5482C34.0939 40.8194 33.8539 40.9684 33.5482 40.9744C32.2627 41.0042 30.9772 41.0251 29.6945 40.9357C29.4574 40.9178 29.2374 40.8373 29.026 40.73C27.829 40.116 26.7778 39.3023 25.8636 38.286C24.7523 37.0521 23.7411 35.7257 22.7326 34.4024C21.3728 32.6141 20.1987 30.7036 19.1417 28.7096C18.7561 27.9824 18.3847 27.2462 18.1076 26.4653C17.9705 26.0778 17.9705 25.6933 18.0733 25.3029C18.1019 25.1867 18.1562 25.0734 18.2161 24.9721C18.3018 24.823 18.439 24.7396 18.6104 24.7366C18.6704 24.7366 18.7361 24.7336 18.7961 24.7336C20.1302 24.7336 21.4642 24.7396 22.7983 24.7277C23.0612 24.7247 23.264 24.8171 23.4411 25.0048C23.7696 25.3476 24.0267 25.747 24.2553 26.1643C24.5067 26.6173 24.7552 27.0733 24.9752 27.5442C25.4608 28.5785 26.055 29.5412 26.6864 30.48C26.9949 30.939 27.3263 31.3772 27.6462 31.8272C27.7948 32.0359 28.0004 32.1163 28.2376 32.1223C28.469 32.1312 28.5604 32.0329 28.5718 31.7915C28.5747 31.7348 28.5747 31.6782 28.5747 31.6186C28.5747 30.0479 28.5747 28.4771 28.5718 26.9064C28.5718 26.7842 28.5718 26.662 28.5604 26.5398C28.5347 26.2596 28.3918 26.0957 28.1261 26.0421C28.0062 26.0182 27.8833 26.0063 27.7605 25.9884C27.3863 25.9377 27.2291 25.7708 27.1891 25.3774C27.132 24.7843 27.4034 24.3193 27.9376 24.1107C28.1661 24.0213 28.4061 24.0034 28.6489 24.0034C29.8373 24.0064 31.0286 24.0034 32.217 24.0034C32.4569 24.0034 32.6998 23.9915 32.9397 24.0123C33.1911 24.0392 33.4454 24.0719 33.6882 24.1465C34.2081 24.3044 34.5109 24.671 34.5681 25.2403C34.5824 25.3774 34.5881 25.5115 34.5881 25.6486C34.5909 26.6024 34.5909 27.5562 34.5909 28.5099C34.5909 29.5203 34.5909 30.5337 34.5938 31.5441C34.5938 31.6424 34.6024 31.7468 34.6281 31.8391C34.7138 32.1461 35.0309 32.2475 35.3023 32.0537C36.0936 31.4845 36.6135 30.6917 37.0163 29.8064C37.3877 28.9898 37.7048 28.1493 38.0533 27.3237C38.3304 26.668 38.6161 26.0182 38.9046 25.3655C38.976 25.2045 39.0789 25.0585 39.1788 24.9095C39.2674 24.7783 39.3817 24.7187 39.5474 24.7187C41.2728 24.7247 42.9983 24.7247 44.7238 24.7217C45.1465 24.7217 45.4808 24.9005 45.7436 25.2343C45.8379 25.3536 45.875 25.4936 45.8979 25.6486C46.0007 26.358 45.7665 26.975 45.4436 27.5711C45.1351 28.1344 44.7695 28.653 44.3695 29.1477C43.5439 30.1671 42.7355 31.1983 42.027 32.313C41.8442 32.5992 41.6899 32.9032 41.5242 33.2012C41.4014 33.4188 41.4185 33.6245 41.5699 33.8182C41.8813 34.2087 42.1841 34.611 42.5126 34.9866C43.2925 35.8777 44.0924 36.748 44.8752 37.6333C45.1266 37.9194 45.3522 38.2234 45.5865 38.5274C45.6636 38.6287 45.7208 38.745 45.795 38.8463C46.3664 39.6421 45.6379 40.8254 44.9009 40.9267Z" fill="black" fill-opacity="0.4"/>
</svg>
