<svg width="11" height="27" viewBox="0 0 11 27" fill="none" xmlns="http://www.w3.org/2000/svg">
<path d="M4.27488 11.3046C4.40031 9.93397 4.90003 8.58696 4.90136 8.43631C6.22585 8.55764 8.47347 9.22363 9.44892 8.19842C10.7074 6.87222 10.8 1.86467 10.3817 1.45007C9.16653 0.403208 5.24422 0.611394 4.46378 1.03078C2.90472 1.9459 2.14623 3.40722 1.53446 5.95096C0.445748 9.57742 0.311864 18.1574 1.2888 21.7479C1.81612 24.2728 2.52795 25.7087 4.06057 26.5697C4.76348 26.9821 8.46606 27.0158 9.70889 25.9286C10.1422 25.501 10.1151 20.1129 8.89909 18.8295C7.95705 17.8305 5.68804 18.5805 4.3557 18.7505C4.36101 18.5949 4.15606 17.5752 4.13699 16.2299C4.04157 14.5669 4.1348 12.7942 4.27488 11.3046Z" fill="#0054A7"/>
</svg>
