<svg width="65" height="65" viewBox="0 0 65 65" fill="none" xmlns="http://www.w3.org/2000/svg">
<path fill-rule="evenodd" clip-rule="evenodd" d="M34.1111 23.2591C39.5818 24.1413 42.1049 26.8696 42.8015 32.6481C42.8661 33.1819 42.6766 33.9849 43.4027 33.9998C44.1616 34.0151 43.9787 33.2237 43.985 32.6894C44.0494 27.2469 39.5245 22.2017 34.2693 22.0155C33.8728 22.0753 33.0524 21.7287 33.0012 22.6608C32.9673 23.289 33.658 23.1859 34.1111 23.2591Z" fill="black" fill-opacity="0.4"/>
<path fill-rule="evenodd" clip-rule="evenodd" d="M42.3081 38.5574C40.4684 37.2093 38.1552 34.6292 36.3526 37.503C35.751 38.4492 34.9089 38.4904 34.0283 38.0755C31.6007 36.932 29.7263 35.1703 28.6282 32.607C27.3332 29.4231 30.5035 30.0211 30.4446 27.8013C30.3816 26.593 27.5572 22.5544 26.4418 22.1282C25.9802 21.9517 25.5205 21.9633 25.0509 22.1272C22.4356 23.0408 21.3523 25.2753 22.3897 27.921C25.4848 35.8147 30.9315 41.3099 38.4294 44.6639C38.857 44.8548 39.3318 44.9312 39.5722 44.9999C41.2793 45.0178 43.2789 43.3091 43.8565 41.6135C44.4125 39.9822 43.2376 39.3348 42.3081 38.5574Z" fill="black" fill-opacity="0.4"/>
<path fill-rule="evenodd" clip-rule="evenodd" d="M35.2735 25.0944C34.78 25.0292 34.1285 24.7743 34.0133 25.5249C33.8928 26.3126 34.6189 26.2327 35.0856 26.347C38.2543 27.1231 39.3575 28.3871 39.8793 31.8315C39.9556 32.3337 39.8041 33.1153 40.5828 32.9857C41.1599 32.8893 40.9516 32.2194 40.9998 31.8281C41.0255 28.5211 38.4396 25.5111 35.2735 25.0944Z" fill="black" fill-opacity="0.4"/>
<path fill-rule="evenodd" clip-rule="evenodd" d="M34.8523 27.0005C34.5101 27.0088 34.1743 27.0445 34.0484 27.398C33.8596 27.9266 34.2569 28.0525 34.6614 28.1153C36.0119 28.3249 36.7226 29.0949 36.8576 30.3968C36.8941 30.7501 37.1261 31.0366 37.4792 30.9962C37.9684 30.9398 38.0128 30.5187 37.9976 30.1188C38.0217 28.656 36.3116 26.9655 34.8523 27.0005Z" fill="black" fill-opacity="0.4"/>
<circle cx="32.5" cy="32.5" r="32" stroke="black" stroke-opacity="0.3"/>
</svg>
