<svg width="28" height="48" viewBox="0 0 28 48" fill="none" xmlns="http://www.w3.org/2000/svg">
<path d="M13.6267 0.829594C11.9467 1.38025 11.2187 2.43569 11.2 4.28653C11.2 5.63259 11.0693 5.78555 10.3413 5.32666C9.81867 5.00544 8.15733 5.03604 7.28 5.40314C6.888 5.5714 6.36533 5.92321 6.12267 6.19854C5.69333 6.70332 5.69333 6.70332 5.63733 12.47L5.58133 18.2366L4.89067 17.9001C4.312 17.6248 3.84533 17.5483 2.10933 17.5024L0 17.4565V25.1046C0 31.7431 0.0373333 32.8292 0.298667 33.3339C0.821333 34.3588 1.176 34.9706 1.904 36.0108L2.61333 37.0203V39.1924V41.3491H3.06133C3.304 41.3491 3.56533 41.242 3.62133 41.1044C3.67733 40.9667 3.73333 39.9878 3.73333 38.917V36.9744L3.06133 36.1484C2.16533 35.0012 1.71733 34.267 1.19467 33.0892C0.746667 32.0949 0.746667 32.0644 0.746667 25.2576V18.4049H2.42667C4.032 18.4049 4.12533 18.4202 4.76 18.8944C5.13333 19.1544 5.63733 19.6898 5.88 20.0722L6.328 20.7758L6.34667 14.1525C6.34667 6.84098 6.34667 6.84098 7.504 6.10677C8.32533 5.60199 9.24 5.5867 10.0987 6.06088C11.088 6.61154 11.2 6.91747 11.2 9.41074C11.2 11.6746 11.312 12.0417 11.8533 11.6746C12.096 11.5216 12.1333 10.7874 12.1333 7.36105C12.1333 2.7875 12.208 2.43569 13.2907 1.88503C14.4853 1.27318 15.2507 1.28848 16.1093 1.94621L16.6133 2.32862V6.30562C16.6133 8.49297 16.6693 10.3744 16.7253 10.5121C16.7813 10.6497 16.9867 10.7568 17.1733 10.7568C17.36 10.7568 17.5653 10.6497 17.6213 10.5121C17.6773 10.3744 17.7333 9.19659 17.7333 7.88112C17.7333 5.83144 17.7893 5.43374 18.0693 5.15841C18.4613 4.7607 19.0773 4.48537 19.5813 4.48537C20.2347 4.48537 21.4667 4.95956 21.7093 5.31137C21.8587 5.52551 21.9707 6.71861 22.0267 8.7683C22.1013 11.4604 22.1573 11.904 22.4187 11.9499C22.6053 11.9805 22.8107 11.7816 22.9973 11.3839C23.352 10.665 24.0053 10.2826 25.0693 10.1908C26.096 10.0991 27.0667 10.6038 27.3093 11.3534C27.384 11.6287 27.44 15.9422 27.4027 20.9135C27.328 29.724 27.3093 29.9841 26.9173 31.0701C26.4133 32.4162 25.872 33.3186 24.4347 35.2001L23.3333 36.6226V38.657C23.3333 40.6914 23.464 41.1044 24.0053 40.9361C24.2107 40.8749 24.2667 40.4161 24.2667 38.8406V36.8368L25.0693 35.8425C26.376 34.2364 27.1973 32.9362 27.608 31.7737C27.9813 30.7183 28 30.3818 28 20.6381C28 13.7243 27.944 10.4815 27.7947 10.2673C27.3093 9.51781 25.088 9.1507 23.7627 9.60959C23.408 9.73196 23.072 9.83903 23.0533 9.83903C23.016 9.83903 22.96 8.81419 22.9227 7.5599L22.8667 5.26548L22.3067 4.7913C21.224 3.85823 19.8613 3.53701 18.536 3.91942L17.7333 4.14886V3.65938C17.7147 1.57911 15.6613 0.171856 13.6267 0.829594Z" fill="#0054A7"/>
<path d="M15.6987 12.5924C13.7947 12.9137 12.0213 14.0303 11.1813 15.4375C10.8827 15.9729 10.7333 16.5389 10.6773 17.4413C10.584 18.8639 10.8453 19.6746 11.7973 20.8065L12.3387 21.4642H11.1253C8.71733 21.4642 6.51467 22.5808 5.46933 24.3399C5.00267 25.1047 4.94667 25.38 4.94667 26.6649C4.94667 28.2098 5.18933 28.7911 6.30933 29.9995L6.776 30.5043L6.02933 31.0243C5.61867 31.315 5.07733 31.9115 4.83467 32.3551C4.38667 33.1658 4.38667 33.1811 4.33067 39.5137L4.29333 45.8616L4.72267 46.4735C5.78667 48.0031 8.21333 48.3549 10.024 47.223L10.6213 46.8559L11.312 47.2383C11.704 47.4524 12.208 47.6666 12.4507 47.7124C13.3093 47.896 14.7093 47.6818 15.512 47.2536L16.2773 46.8253L16.7813 47.2077C17.6773 47.9113 19.3013 48.049 20.5333 47.5289C21.1307 47.2841 21.896 46.6111 22.3253 45.9381C22.6613 45.4333 22.68 44.7909 22.736 34.4201C22.792 22.3055 22.8293 22.7644 21.6347 22.0608L21.0933 21.7396L21.6533 21.1583C22.6613 20.1182 23.1467 19.0627 23.1467 17.8696C23.1467 16.5694 22.9227 15.8505 22.1947 14.8716C20.9253 13.189 18.1067 12.1947 15.6987 12.5924ZM18.2 16.7683C18.872 17.2884 19.768 17.6861 20.8507 17.9461C21.5787 18.1297 21.6347 18.1755 21.5413 18.5427C21.1867 19.7816 19.768 21.0359 18.312 21.4489C15.8293 22.122 12.8987 20.7147 12.2453 18.5121C12.152 18.1908 12.208 18.0685 12.4507 18.0073C13.9627 17.5943 15.6613 16.6 16.3893 15.6823L16.6693 15.3152L17.1547 15.8352C17.416 16.1106 17.8827 16.5389 18.2 16.7683ZM20.3653 22.9938C21.112 23.3304 21.28 23.9269 21.28 26.1754C21.28 28.5463 21.0747 29.2653 19.8613 31.0855C18.592 32.9975 15.3813 35.2308 13.9067 35.2308C12.8427 35.2308 11.9653 34.5271 11.9467 33.6706C11.9467 32.7987 12.264 32.401 13.72 31.4832C16.6693 29.6324 17.36 28.5922 17.36 25.9766C17.36 24.294 17.5093 23.7433 18.144 23.1774C18.5733 22.8103 19.712 22.7185 20.3653 22.9938ZM15.6053 25.533C16.24 27.3532 15.2693 29.1582 13.16 30.076C12.1707 30.5043 10.0987 30.5348 9.14667 30.1218C7.07467 29.2347 6.02933 27.4756 6.53333 25.7471C6.664 25.3189 6.79467 24.9823 6.832 24.9823C6.888 24.9823 7.24267 25.1506 7.63467 25.3494C8.47467 25.793 10.08 26.206 10.9387 26.206C11.8533 26.206 13.272 25.7777 14.1867 25.2118C14.6533 24.9212 15.0827 24.6917 15.1573 24.6917C15.232 24.6764 15.4373 25.0588 15.6053 25.533ZM9.408 32.2021C9.78133 32.4775 9.94933 32.8293 10.1547 33.7317C10.6213 35.7661 11.2 36.2862 13.496 36.7757C14.336 36.9439 14.9707 37.1734 15.1573 37.3722C15.9787 38.1982 15.6427 39.5902 14.5413 40.0644C13.7387 40.4009 11.7413 40.2632 10.5093 39.789C8.624 39.0548 6.79467 36.9898 6.34667 35.0472C6.048 33.7776 6.45867 32.401 7.224 32.0339C7.82133 31.7432 8.904 31.835 9.408 32.2021ZM20.7387 45.418C20.048 46.7029 18.4987 46.8864 17.6027 45.8004C17.192 45.2956 17.1733 45.1886 17.1733 41.3798C17.1733 37.6935 17.1547 37.4334 16.7627 36.791C16.408 36.1638 16.3893 36.1026 16.688 35.965C17.36 35.6591 19.2453 34.2824 20.104 33.4717L21 32.6151L21.056 38.6724C21.0933 44.4085 21.0747 44.7756 20.7387 45.418ZM8.96 40.7374L9.89333 41.2269V43.2613C9.89333 45.4945 9.744 45.831 8.58667 46.3205C7.76533 46.6723 7.29867 46.5958 6.608 46.0299L5.97333 45.5098V41.9458V38.3971L7 39.3148C7.56 39.8196 8.43734 40.4621 8.96 40.7374ZM15.4933 43.3224C15.4933 45.2192 15.4747 45.3262 15.008 45.7698C14.4667 46.3052 13.4587 46.5193 12.768 46.2593C11.9653 45.9687 11.592 45.2498 11.6667 44.1943C11.704 43.6743 11.7413 42.8941 11.7413 42.4506L11.76 41.6552L13.0293 41.6399C13.72 41.6399 14.448 41.5787 14.6533 41.5022C15.4747 41.2116 15.4933 41.2575 15.4933 43.3224Z" fill="#0054A7"/>
<path d="M13.5147 17.9156C12.8614 18.2827 13.1787 19.1699 13.9627 19.1699C14.5787 19.1699 14.9334 18.9252 14.9334 18.4816C14.9334 17.9156 14.112 17.5791 13.5147 17.9156Z" fill="#0054A7"/>
<path d="M18.8906 18.1297C18.76 18.2367 18.6666 18.4509 18.6666 18.6344C18.6666 18.818 18.76 19.0321 18.8906 19.1392C19.0213 19.2463 19.2826 19.3228 19.5066 19.3228C19.7306 19.3228 19.992 19.2463 20.1226 19.1392C20.2533 19.0321 20.3466 18.818 20.3466 18.6344C20.3466 18.4509 20.2533 18.2367 20.1226 18.1297C19.992 18.0226 19.7306 17.9461 19.5066 17.9461C19.2826 17.9461 19.0213 18.0226 18.8906 18.1297Z" fill="#0054A7"/>
<path d="M13.384 26.3284C12.824 26.8331 13.104 27.4297 13.9066 27.4297C14.728 27.4297 15.0826 26.5119 14.392 26.206C13.888 25.9919 13.7386 26.0071 13.384 26.3284Z" fill="#0054A7"/>
<path d="M7.80272 26.3744C7.41072 26.558 7.35472 27.1239 7.69072 27.3992C8.21339 27.8275 9.14672 27.5063 9.14672 26.8945C9.14672 26.2826 8.49339 26.0379 7.80272 26.3744Z" fill="#0054A7"/>
</svg>
