<svg width="65" height="65" viewBox="0 0 65 65" fill="none" xmlns="http://www.w3.org/2000/svg">
<circle cx="32.5" cy="32.5" r="32" stroke="black" stroke-opacity="0.3"/>
<path fill-rule="evenodd" clip-rule="evenodd" d="M32.4961 19C25.0538 19 19 25.0555 19 32.4999C19 35.4522 19.9521 38.1903 21.5706 40.4127L19.8885 45.4284L25.0775 43.77C27.2117 45.1827 29.7586 46 32.5039 46C39.9462 46 46 39.9443 46 32.5001C46 25.0557 39.9462 19.0002 32.5039 19.0002H32.4961V19ZM28.7272 25.8573C28.4655 25.2304 28.2671 25.2067 27.8705 25.1905C27.7355 25.1827 27.585 25.1749 27.4182 25.1749C26.9023 25.1749 26.3628 25.3256 26.0375 25.6589C25.6409 26.0636 24.657 27.008 24.657 28.9445C24.657 30.8811 26.0693 32.7541 26.2596 33.0162C26.458 33.2778 29.0129 37.3096 32.98 38.9527C36.0822 40.2384 37.0028 40.1192 37.7088 39.9685C38.7402 39.7463 40.0336 38.9841 40.3589 38.0637C40.6843 37.1429 40.6843 36.3572 40.5889 36.1905C40.4937 36.0239 40.2317 35.9289 39.8352 35.7302C39.4386 35.5318 37.5104 34.5794 37.1454 34.4524C36.7882 34.3175 36.4472 34.3652 36.1776 34.7462C35.7967 35.278 35.4239 35.8178 35.1223 36.143C34.8842 36.397 34.4953 36.4288 34.1701 36.2938C33.7337 36.1114 32.512 35.6825 31.0043 34.3413C29.8379 33.3018 29.0445 32.0082 28.8146 31.6194C28.5844 31.2227 28.7908 30.9922 28.9731 30.7781C29.1715 30.5319 29.3618 30.3575 29.5602 30.1272C29.7586 29.8972 29.8697 29.778 29.9967 29.5081C30.1317 29.2463 30.0363 28.9764 29.9411 28.7779C29.8459 28.5794 29.0526 26.6429 28.7272 25.8573Z" fill="black" fill-opacity="0.4"/>
</svg>
